#!OML:ASF F:\VICON\USERDATA\INSTALL\rory3\rory3.ASF
:FULLY-SPECIFIED
:DEGREES
729
root -0.447065 18.4991 7.62806 17.9433 -2.00301 -1.55633
lowerback -6.21469 -1.52969 4.83678
upperback -7.02887 -2.20144 0.465008
thorax -3.98334 -1.31955 -2.27648
lowerneck -13.7699 -5.73239 -8.15912
upperneck 23.4879 -7.10559 3.89486
head 10.208 -3.58423 1.80437
rclavicle -1.86605e-014 4.12478e-015
rhumerus -43.9103 14.3159 -86.2467
rradius 48.3576
rwrist 8.36619
rhand -23.8882 -46.3175
rfingers 7.12502
rthumb 2.58531 -76.2816
lclavicle -1.86605e-014 4.12478e-015
lhumerus -48.5612 -15.6002 86.0279
lradius 62.1976
lwrist 7.09828
lhand -30.3983 -35.769
lfingers 7.12502
lthumb -3.70213 -5.82139
rfemur -33.91 3.46758 21.6036
rtibia 36.5688
rfoot 8.92092 -4.76141
rtoes -29.2611
lfemur -52.847 20.6144 -12.8672
ltibia 110.66
lfoot -6.78399 2.39623
ltoes -4.16152
730
root -0.532807 18.286 7.62829 17.8199 -1.61058 -1.29375
lowerback -6.14511 -1.70868 4.63978
upperback -7.01676 -2.43551 0.27243
thorax -4.02621 -1.43378 -2.36855
lowerneck -13.0647 -6.00314 -8.72138
upperneck 22.7901 -7.48736 4.2894
head 9.89148 -3.77385 2.00086
rclavicle -2.4984e-014 -2.12327e-014
rhumerus -43.9373 13.9745 -86.5249
rradius 48.5603
rwrist 8.33713
rhand -23.9167 -46.2903
rfingers 7.12502
rthumb 2.55785 -76.2547
lclavicle -2.4984e-014 -2.12327e-014
lhumerus -48.7884 -14.5928 85.25
lradius 62.2534
lwrist 6.92243
lhand -30.8304 -36.6873
lfingers 7.12502
lthumb -4.11932 -6.74735
rfemur -33.3398 3.6039 21.5728
rtibia 36.9085
rfoot 4.78621 -5.41326
rtoes -30.65
lfemur -54.0905 20.8969 -12.2059
ltibia 113.702
lfoot -6.92865 1.52029
ltoes -3.67538
731
root -0.624006 18.0672 7.62838 17.7543 -1.55532 -0.989397
lowerback -6.01949 -1.76234 4.24564
upperback -7.00377 -2.49559 0.0309333
thorax -4.07751 -1.45325 -2.39594
lowerneck -13.1159 -5.86725 -8.40284
upperneck 22.6292 -7.37895 4.37143
head 9.82387 -3.68617 1.99166
rclavicle -2.78446e-014 9.24349e-015
rhumerus -43.877 13.4415 -86.7695
rradius 48.7471
rwrist 8.50057
rhand -23.8769 -46.0781
rfingers 7.12502
rthumb 2.59625 -76.042
lclavicle -2.78446e-014 9.24349e-015
lhumerus -48.8749 -13.7825 84.4699
lradius 62.371
lwrist 6.91904
lhand -30.7013 -37.1787
lfingers 7.12502
lthumb -3.99473 -7.23644
rfemur -33.1743 3.97284 21.5184
rtibia 37.7246
rfoot 0.613124 -5.88721
rtoes -33.0818
lfemur -55.4181 21.6352 -11.6106
ltibia 116.585
lfoot -7.0717 0.437861
ltoes -2.31815
732
root -0.712507 17.8518 7.64041 17.6256 -1.59199 -0.936115
lowerback -5.82908 -1.70886 4.09708
upperback -6.90892 -2.41644 -0.112381
thorax -4.07652 -1.40874 -2.45572
lowerneck -12.8732 -6.14679 -8.80939
upperneck 21.9249 -7.77072 4.79328
head 9.59377 -3.85737 2.15853
rclavicle 9.24349e-015 6.55989e-015
rhumerus -43.606 12.9214 -86.9014
rradius 48.8054
rwrist 8.74381
rhand -23.521 -46.2831
rfingers 7.12502
rthumb 2.93993 -76.2426
lclavicle 9.24349e-015 6.55989e-015
lhumerus -48.8209 -13.0748 83.8907
lradius 62.4853
lwrist 6.84696
lhand -30.7428 -37.2934
lfingers 7.12502
lthumb -4.03479 -7.35185
rfemur -33.171 4.23719 21.8197
rtibia 38.8617
rfoot -2.6635 -7.13415
rtoes -34.0854
lfemur -56.4413 22.6683 -10.6128
ltibia 119.212
lfoot -7.53829 -0.639556
ltoes -0.507196
733
root -0.795482 17.6398 7.64484 17.5613 -1.5338 -1.2664
lowerback -5.62669 -1.59515 4.36698
upperback -6.84342 -2.26224 -0.0822072
thorax -4.12111 -1.34217 -2.56738
lowerneck -12.2971 -6.4341 -9.45451
upperneck 20.954 -8.1633 5.32854
head 9.23149 -4.04274 2.41178
rclavicle 2.82895e-014 -1.23246e-014
rhumerus -43.414 12.4058 -86.9242
rradius 48.9417
rwrist 8.98993
rhand -23.6011 -46.6504
rfingers 7.12502
rthumb 2.86259 -76.6109
lclavicle 2.82895e-014 -1.23246e-014
lhumerus -48.8651 -12.2276 83.4886
lradius 62.715
lwrist 6.37911
lhand -30.9911 -37.5075
lfingers 7.12502
lthumb -4.27456 -7.5706
rfemur -33.6643 4.48521 22.5609
rtibia 40.358
rfoot -6.00186 -8.70881
rtoes -28.673
lfemur -57.6103 23.8617 -9.12885
ltibia 121.698
lfoot -8.1728 -1.88551
ltoes 0.443862
734
root -0.879215 17.457 7.63243 17.6314 -1.55858 -1.60701
lowerback -5.28038 -1.4849 4.57698
upperback -6.92288 -2.09805 0.0128995
thorax -4.39254 -1.27361 -2.57118
lowerneck -11.4888 -6.48919 -9.96928
upperneck 19.9486 -8.2478 5.71251
head 8.78488 -4.09491 2.63831
rclavicle 3.78933e-015 -1.2921e-015
rhumerus -43.4441 11.9387 -86.9672
rradius 49.2713
rwrist 9.31367
rhand -24.2933 -47.3267
rfingers 7.12502
rthumb 2.19406 -77.2952
lclavicle 3.78933e-015 -1.2921e-015
lhumerus -48.9926 -11.1882 83.1703
lradius 62.7976
lwrist 5.7485
lhand -31.6347 -38.2287
lfingers 7.12502
lthumb -4.896 -8.30524
rfemur -34.5245 4.65214 23.4124
rtibia 41.8912
rfoot -8.94772 -9.90175
rtoes -21.2535
lfemur -59.0348 25.1652 -7.78931
ltibia 123.819
lfoot -8.70021 -3.30603
ltoes 1.71163
735
root -0.956778 17.2461 7.60758 17.5127 -1.58823 -1.81977
lowerback -4.64106 -1.44273 4.60974
upperback -6.9166 -2.00538 0.121615
thorax -4.73509 -1.23195 -2.45658
lowerneck -11.1527 -6.54064 -10.3902
upperneck 19.2192 -8.28794 5.9707
head 8.51074 -4.12232 2.79808
rclavicle -2.86064e-015 -1.02374e-014
rhumerus -43.2673 11.6277 -87.0031
rradius 49.4807
rwrist 9.95198
rhand -24.6663 -48.6645
rfingers 7.12502
rthumb 1.83384 -78.6363
lclavicle -2.86064e-015 -1.02374e-014
lhumerus -48.9307 -10.0157 82.8558
lradius 62.6728
lwrist 5.03387
lhand -32.3865 -38.903
lfingers 7.12502
lthumb -5.62191 -8.99753
rfemur -35.2255 4.43738 24.3046
rtibia 43.4906
rfoot -11.4257 -10.9475
rtoes -14.7018
lfemur -60.3051 26.4972 -6.47961
ltibia 125.868
lfoot -9.67113 -4.68961
ltoes 2.78025
736
root -1.02753 17.0523 7.59573 17.2089 -1.53537 -2.34641
lowerback -4.00496 -1.39778 5.0134
upperback -6.71865 -1.91169 0.322273
thorax -4.88743 -1.1976 -2.45894
lowerneck -11.5567 -6.64803 -10.6274
upperneck 19.018 -8.35758 6.07772
head 8.53876 -4.15121 2.85205
rclavicle 1.85833e-014 1.49089e-015
rhumerus -42.8814 11.5096 -86.9899
rradius 49.644
rwrist 10.7207
rhand -24.7085 -50.2148
rfingers 7.12502
rthumb 1.79307 -80.187
lclavicle 1.85833e-014 1.49089e-015
lhumerus -48.7448 -8.76841 82.4811
lradius 62.472
lwrist 4.02147
lhand -32.4901 -39.6536
lfingers 7.12502
lthumb -5.72189 -9.75084
rfemur -35.4357 4.14259 25.5921
rtibia 44.7628
rfoot -13.8606 -11.9611
rtoes -10.4412
lfemur -61.0547 27.9472 -4.63754
ltibia 127.541
lfoot -11.3064 -6.19608
ltoes 2.19077
737
root -1.08697 16.8764 7.59858 17.169 -1.55842 -3.12516
lowerback -3.9452 -1.29404 5.83982
upperback -6.47009 -1.77474 0.564933
thorax -4.67442 -1.15132 -2.67211
lowerneck -12.3385 -6.75681 -10.6375
upperneck 19.1336 -8.37983 5.87068
head 8.71428 -4.16537 2.75811
rclavicle 1.55673e-014 -2.20651e-014
rhumerus -42.4128 11.7137 -86.9875
rradius 49.7457
rwrist 11.2941
rhand -25.1382 -51.4562
rfingers 7.12502
rthumb 1.37806 -81.4315
lclavicle 1.55673e-014 -2.20651e-014
lhumerus -48.4709 -7.39751 82.0148
lradius 61.9995
lwrist 2.87052
lhand -32.715 -41.1723
lfingers 7.12502
lthumb -5.93909 -11.2755
rfemur -35.776 4.10012 26.9975
rtibia 45.8092
rfoot -16.2006 -13.0834
rtoes -9.43454
lfemur -61.8856 29.3344 -2.75145
ltibia 128.881
lfoot -12.9808 -7.53919
ltoes 0.124408
738
root -1.13326 16.6959 7.56581 17.9697 -1.83016 -5.9254
lowerback -4.20335 -0.793378 8.71272
upperback -6.44909 -1.13491 1.31263
thorax -4.53821 -0.939302 -3.5015
lowerneck -12.7997 -6.85422 -10.5761
upperneck 18.8489 -8.39991 5.58946
head 8.68832 -4.18533 2.63697
rclavicle -7.53518e-015 -2.88238e-015
rhumerus -41.8536 12.0458 -86.8992
rradius 49.6099
rwrist 11.9232
rhand -25.4556 -52.4345
rfingers 7.12502
rthumb 1.07158 -82.4116
lclavicle -7.53518e-015 -2.88238e-015
lhumerus -48.0908 -6.11808 81.5706
lradius 61.2394
lwrist 1.71765
lhand -33.3163 -42.737
lfingers 7.12502
lthumb -6.51952 -12.8574
rfemur -36.8134 5.37061 30.2448
rtibia 46.4949
rfoot -17.9296 -14.4292
rtoes -10.2557
lfemur -63.9318 33.3859 1.57952
ltibia 130.566
lfoot -14.599 -10.2389
ltoes -2.92927
739
root -1.17444 16.5483 7.55018 18.9027 -2.41888 -7.99917
lowerback -4.72407 -0.196723 10.8289
upperback -6.44561 -0.422171 1.77636
thorax -4.20984 -0.65258 -4.19515
lowerneck -12.6711 -6.851 -10.4738
upperneck 18.0469 -8.37311 5.49987
head 8.38253 -4.17074 2.59943
rclavicle 1.70862e-014 -4.0403e-014
rhumerus -41.3322 12.1225 -86.7468
rradius 49.3958
rwrist 12.8888
rhand -25.2336 -52.9821
rfingers 7.12502
rthumb 1.28598 -82.9579
lclavicle 1.70862e-014 -4.0403e-014
lhumerus -47.7689 -4.98457 81.0805
lradius 60.4858
lwrist 0.327207
lhand -33.7728 -43.6895
lfingers 7.12502
lthumb -6.96025 -13.824
rfemur -37.9054 6.82098 32.4838
rtibia 47.2225
rfoot -19.4387 -15.5431
rtoes -9.47054
lfemur -65.584 36.636 4.48988
ltibia 131.624
lfoot -15.9659 -12.0702
ltoes -5.12222
740
root -1.22309 16.4487 7.53461 18.7618 -3.75302 -8.33822
lowerback -4.07237 0.184233 10.8893
upperback -6.23218 0.156548 1.76927
thorax -4.26064 -0.361638 -4.23239
lowerneck -12.5988 -6.7395 -10.3952
upperneck 17.3939 -8.23069 5.58841
head 8.13808 -4.08668 2.63883
rclavicle 1.76732e-015 -1.98785e-015
rhumerus -40.8864 12.2227 -86.6895
rradius 49.3649
rwrist 13.7758
rhand -24.9064 -52.9141
rfingers 7.12502
rthumb 1.60201 -82.8878
lclavicle 1.76732e-015 -1.98785e-015
lhumerus -47.6738 -3.63025 80.429
lradius 59.9789
lwrist -1.25044
lhand -34.0214 -44.0807
lfingers 7.12502
lthumb -7.2002 -14.2232
rfemur -38.0927 8.27356 32.791
rtibia 48.207
rfoot -20.3425 -16.6501
rtoes -8.7239
lfemur -65.437 38.0063 5.21641
ltibia 131.774
lfoot -16.7276 -12.5858
ltoes -5.8582
741
root -1.27709 16.3665 7.54213 18.1508 -4.61765 -7.67359
lowerback -3.58863 0.26824 10.0428
upperback -5.82078 0.306067 1.57476
thorax -4.05397 -0.231473 -3.97079
lowerneck -12.7323 -6.62954 -10.3667
upperneck 16.8938 -8.06587 5.68403
head 7.98345 -3.99166 2.68465
rclavicle -5.8921e-015 2.99171e-014
rhumerus -40.4004 12.4956 -86.6274
rradius 49.4019
rwrist 14.1236
rhand -24.9246 -52.2706
rfingers 7.12502
rthumb 1.58435 -82.2444
lclavicle -5.8921e-015 2.99171e-014
lhumerus -47.7548 -2.12312 79.7992
lradius 59.8139
lwrist -2.63753
lhand -33.8891 -44.3928
lfingers 7.12502
lthumb -7.07252 -14.531
rfemur -38.0069 8.93207 32.2446
rtibia 49.5186
rfoot -20.9005 -17.695
rtoes -9.57135
lfemur -64.97 36.7278 4.4469
ltibia 131.427
lfoot -16.7143 -12.1543
ltoes -5.57343
742
root -1.33569 16.3004 7.53415 17.3312 -5.52858 -6.44094
lowerback -2.85686 0.3474 8.46711
upperback -5.37847 0.469681 1.25058
thorax -3.95309 -0.0751434 -3.43894
lowerneck -12.7734 -6.57879 -10.3331
upperneck 16.3137 -7.97871 5.7219
head 7.79087 -3.93968 2.70319
rclavicle 1.68625e-014 -2.54444e-014
rhumerus -39.8892 12.5547 -86.4463
rradius 49.4808
rwrist 14.1809
rhand -25.028 -51.457
rfingers 7.12502
rthumb 1.48449 -81.4316
lclavicle 1.68625e-014 -2.54444e-014
lhumerus -47.7887 -0.777368 79.3288
lradius 59.8714
lwrist -3.59126
lhand -33.574 -44.9679
lfingers 7.12502
lthumb -6.76832 -15.0961
rfemur -38.084 9.68912 31.0561
rtibia 51.0245
rfoot -21.2156 -18.357
rtoes -9.7722
lfemur -64.5419 34.5848 2.74256
ltibia 130.8
lfoot -16.5683 -11.3313
ltoes -6.1617
